<svg width="421" height="268" viewBox="0 0 421 268" fill="none" xmlns="http://www.w3.org/2000/svg">
<path d="M0.90918 275.478C27.3604 275.745 137.632 274.126 166.047 275.067C165.897 273.074 165.747 271.081 165.597 269.088C188.846 270.311 212.168 270.122 235.393 268.525C240.699 252.215 244.555 246.834 246.905 229.841C254.342 243.561 256.64 248.016 258.361 263.531C258.522 264.974 258.824 266.644 260.105 267.323C260.899 267.742 261.855 267.647 262.747 267.541C266.659 267.074 270.571 266.607 274.483 266.14C276.201 265.935 278.064 265.66 279.262 264.41C280.776 262.831 280.649 260.343 280.406 258.167C278.643 242.36 276 226.652 272.859 212.075C272.526 208.572 272.001 204.686 269.289 202.448C267.887 201.29 266.086 200.754 264.332 200.277C250.26 196.447 235.657 194.569 219.501 194.779C223.507 194.323 227.595 194.599 231.505 195.589C225.113 200.475 218.549 205.136 211.83 209.562C208.167 211.972 204.108 214.407 199.74 214.049C197.231 213.843 194.899 212.725 192.634 211.624C188.665 209.695 184.694 207.767 180.592 205.669C168.634 202.835 155.132 204.512 144.961 197.608C139.116 193.639 135.145 187.018 134.393 179.986C133.893 175.316 134.747 170.602 135.937 166.06C138.059 157.962 141.246 150.192 144.424 142.45C151.316 125.66 158.231 108.824 167.07 92.9763C170.07 87.5972 173.442 82.1746 178.525 78.7047C186.451 73.2946 196.822 73.6687 208.377 75.2928C213.257 63.1656 214.114 49.8413 217.283 37.1575C220.452 24.4738 226.838 11.4636 238.584 5.75881C253.023 -1.25333 271.381 5.65579 281.336 18.2602C291.291 30.8643 294.271 47.6783 294.318 63.7491C294.38 84.9357 289.946 105.891 289.051 127.058C288.739 134.414 288.811 142.012 285.938 148.787C283.066 155.563 276.252 161.339 268.975 160.303C272.128 156.455 273.472 151.181 272.549 146.29C272.841 150.19 270.653 154.167 267.205 156.003C263.757 157.84 259.242 157.434 255.439 154.095C260.279 147.769 263.411 140.145 264.418 132.24C265.039 127.362 264.869 122.383 265.883 117.572C266.853 112.964 268.876 108.658 270.552 104.259C275.779 90.5355 277.668 75.5498 276.01 60.9559C276.605 72.4457 271.935 84.1055 263.576 91.9989C259.226 96.1052 253.389 99.3254 247.487 98.3729C239.997 97.1655 235.133 89.8732 232.153 82.8856C228.621 74.6067 226.387 65.7743 224.674 55.7344C231.801 41.013 244.949 29.3284 260.391 23.9928C269.858 33.898 275.839 47.0844 277.06 60.7424C276.427 57.1885 276.673 52.2437 280.213 51.5628C282.492 51.1244 284.659 53.1392 285.249 55.3862C285.839 57.6342 285.278 60.0045 284.717 62.2597C283.62 66.6697 281.438 72.0229 276.905 72.2125C277.343 80.8325 274.111 89.3395 269.261 96.4742C264.411 103.61 258.009 109.536 251.469 115.158C250.703 115.816 249.882 116.497 248.886 116.665C247.874 116.834 246.855 116.442 245.945 115.968C236.78 111.191 234.688 99.2207 233.775 89.1602C232.325 85.5223 230.875 81.8844 229.424 78.2466C229.918 83.0276 229.656 88.159 227.012 92.171C224.368 96.1819 218.727 98.4963 214.546 96.1363C211.563 94.4511 210.074 90.9594 209.428 87.591C208.781 84.2226 208.76 80.7247 208.393 78.1502C203.766 75.4876 197.944 75.0119 192.948 76.8899C191.94 77.2692 190.905 77.7916 190.369 78.7265C189.823 79.68 189.907 80.8542 189.991 81.9497C190.952 94.5257 189.598 107.276 186.019 119.368C182.662 130.709 177.322 142.586 180.968 154.381C171.001 152.544 160.864 151.619 150.729 151.623C145.668 151.625 140.322 151.947 136.095 154.737C155.581 163.307 174.566 173.019 193.571 184.248C193.766 186.091 194.14 188.215 195.759 189.112C196.388 189.46 197.118 189.561 197.817 189.728C201.617 190.64 204.56 193.56 207.293 196.359C207.815 196.893 208.37 197.698 207.946 198.313C207.781 198.552 207.506 198.684 207.237 198.791C204.419 199.912 201.223 199.304 198.328 198.401C195.433 197.499 192.554 196.303 189.522 196.276C193.265 197.442 197.071 198.411 200.915 199.179C202.35 199.466 203.879 199.718 205.245 199.19C206.181 198.828 206.943 198.136 207.743 197.531C209.862 195.926 212.39 194.869 215.019 194.487C215.743 194.382 216.617 194.388 217.041 194.985C217.636 195.825 216.821 196.928 216.049 197.608C211.993 201.18 206.968 204.425 201.601 203.818C204.905 203.559 208.244 202.901 211.131 201.27C213.316 200.038 215.174 198.288 217.344 197.032C219.515 195.775 222.23 195.043 224.523 196.059C221.401 200.521 216.889 203.991 211.768 206.213C207.417 208.059 202.784 209.237 198.081 209.695C199.133 208.512 198.382 206.537 197.124 205.576C195.868 204.613 194.256 204.251 192.89 203.451C189.072 201.214 188.17 195.254 191.152 191.984C191.918 191.143 192.956 190.289 192.854 189.155C192.753 188.041 191.596 187.371 190.559 186.953C185.805 185.04 180.54 184.418 175.199 185.25C171.348 181.119 167.47 176.962 162.922 173.618C158.374 170.275 153.064 167.756 147.436 167.343C151.662 167.045 155.538 169.429 159.303 171.373C163.068 173.316 167.627 174.884 172.257 172.727C180.682 178.209 189.106 183.69 197.531 189.173C198.565 189.845 199.65 190.536 200.877 190.657C202.447 190.812 203.934 190.008 205.315 189.246C216.92 182.831 229.069 177.402 241.691 172.679C262.459 173.816 282.938 179.955 300.914 190.431C290.786 192.58 280.891 195.832 271.051 200.474C255.827 196.517 240.145 194.332 224.422 193.978C218.594 193.846 212.666 193.952 207.068 192.326C212.903 185.601 220.849 180.741 229.488 178.615C225.069 173.493 220.649 168.37 216.2 162.598C205.986 159.509 195.668 156.764 185.674 154.437C183.354 142.863 181.066 130.652 184.801 119.454C187.086 112.603 191.586 106.286 191.71 99.0632C191.785 94.7299 190.456 89.6991 193.43 86.5515C194.961 84.9305 197.262 84.3273 199.457 83.95C208.189 82.4472 217.33 83.409 225.559 86.6966C226.252 86.9733 226.997 87.3205 227.313 87.9983C227.623 88.6627 227.425 89.4431 227.219 90.1468C225.055 97.5293 222.485 105.005 222.853 112.69C222.949 114.72 223.465 117.056 225.282 117.96C226.297 118.465 227.49 118.393 228.619 118.309C234.598 117.863 240.579 117.418 246.056 116.335C251.701 119.578 257.346 122.822 262.991 126.065C263.388 126.292 263.855 126.526 264.279 126.357C264.54 126.253 264.721 126.014 264.887 125.786C272.049 115.905 276.028 103.746 276.99 91.944C279.24 98.1885 283.08 103.85 288.046 108.248C291.321 111.149 295.108 113.542 297.791 117.001C304.077 125.103 302.73 136.526 301.544 146.718C300.139 158.802 299.4 170.964 298.912 182.201C299.106 183.724 299.301 185.246 299.495 186.769C298.024 183.195 295.026 180.445 291.746 178.407C288.467 176.368 284.856 174.934 281.407 173.198C271.873 168.397 263.547 161.213 256.89 152.088C251.784 146.859 246.092 141.329 238.843 140.44C234.483 139.906 230.093 141.16 226.044 142.866C221.135 144.932 216.351 147.837 213.443 152.305C213.075 152.871 212.728 153.515 212.818 154.184C212.971 155.313 214.343 155.918 215.46 155.699C216.575 155.478 217.483 154.699 218.374 153.991C222.942 150.359 228.467 147.946 234.232 147.064C231.547 150.006 229.032 153.494 228.918 157.476C228.804 161.459 232.177 165.703 236.105 165.073C234.948 161.05 235.359 156.597 237.231 152.855C235.108 155.741 233.574 159.06 232.748 162.548C235.416 164.801 238.517 166.534 241.832 167.629C241.452 163.216 242.272 158.706 244.18 154.711C242.728 156.73 241.647 159.014 241.003 161.417C240.69 162.581 240.481 163.816 240.771 164.986C241.279 167.034 243.249 168.456 245.301 168.938C247.352 169.42 249.496 169.138 251.046 169.319C251.701 168.179 252.356 167.039 253.011 165.9C252.221 163.849 249.403 163.748 247.222 164.005C247.137 161.987 246.705 159.983 245.947 158.111C245.678 157.444 245.351 156.771 244.801 156.307C243.304 155.047 241.046 155.867 239.293 156.733C237.835 153.613 234.366 151.558 230.934 151.779C230.537 151.805 230.133 151.861 229.782 152.047C229.364 152.27 229.062 152.657 228.773 153.032C227.024 155.299 225.276 157.566 223.528 159.833C223.03 160.48 222.504 161.21 222.572 162.024C222.625 162.658 223.032 163.2 223.438 163.688C224.852 165.385 226.469 166.91 228.245 168.22C229.634 169.244 231.191 170.161 232.91 170.29C234.629 170.419 236.523 169.551 237.742 168.486C238.722 167.742 239.889 166.955 241.081 167.256C241.784 167.434 242.336 167.962 242.955 168.341C243.767 168.838 244.705 169.082 245.594 169.426C247.67 170.23 249.518 171.618 252.59 175.196C267.366 174.568 281.469 180.8 294.945 186.902C296.043 187.4 297.173 187.919 297.993 188.805C299.993 190.968 299.46 194.38 298.708 197.23C297.156 203.114 294.4 209.721 288.544 211.345C282.976 212.889 277.422 209.12 273.504 205.33C272.407 203.597 271.311 201.865 270.214 200.132C279.901 196.232 289.864 193.021 300.065 190.449C303.584 189.619 309.115 208.838 309.987 211.17C310.957 213.769 312.912 215.869 314.964 217.733C317.771 220.279 320.887 222.54 324.389 223.984C325.569 224.47 326.855 224.866 328.109 224.627C329.218 224.417 330.172 223.734 331.086 223.069C333.719 221.156 336.35 219.243 338.342 216.735C341.591 189.993 341.94 162.899 339.381 136.082C338.689 128.829 337.788 121.49 338.919 114.295C340.051 107.098 346.654 98.4507 353.411 94.0739C333.66 97.607 323.652 116.173 319.503 127.247C317.81 134.697 316.325 141.938 314.632 149.388C316.483 142.53 323.854 129.459 317.892 129.05C315.793 128.906 309.823 142.144 308.848 149.256C310.078 142.542 311.101 136.036 312.331 129.321C312.478 128.522 312.621 127.68 312.359 126.912C312.095 126.143 311.272 125.501 310.496 125.738C309.999 125.888 309.617 126.311 309.367 126.768C305.959 132.998 303.381 137.447 302.488 148.431C300.285 140.649 304.651 138.279 303.296 130.304C300.937 129.746 299.336 132.64 298.784 135.004C297.257 141.538 295.91 146.074 296.831 152.721C296.367 150.456 295.076 146.948 294.613 144.684C294.525 144.252 294.429 143.804 294.159 143.456C293.637 142.784 292.087 141.672 291.237 141.653C289.915 141.623 288.854 140.963 288.367 142.195C288.106 142.857 291.165 146.544 291.444 152.875C291.738 159.535 294.273 163.223 295.121 165.184C297.025 169.59 301.049 174.147 306.636 175.557C310.278 175.453 313.911 174.978 317.458 174.143C316.824 171.642 316.619 169.032 316.856 166.463C317.634 158.023 324.709 145.274 325.005 136.804C325.049 135.564 323.766 135.132 322.526 135.132C320.645 135.132 318.301 144.18 316.224 149.23C315.473 151.171 312.408 157.368 311.197 159.06C309.313 158.274 307.259 157.474 305.283 157.989C304.687 158.145 304.118 158.417 303.506 158.484C302.344 158.61 301.254 157.985 300.161 157.568C299.069 157.153 297.671 157.001 296.876 157.861C296.386 158.39 296.272 159.164 296.267 159.886C296.25 162.519 297.36 165.007 298.28 167.475C299.603 171.024 300.563 174.71 301.141 178.454C301.675 181.911 301.886 185.425 303.548 188.536C304.314 194.597 305.232 200.709 307.515 206.375C309.798 212.04 313.594 217.289 318.941 220.229C321.197 221.468 323.779 222.284 326.333 221.966C328.356 221.715 330.243 220.765 331.883 219.553C335.225 217.079 337.683 213.431 338.722 209.401C340.448 202.702 338.239 195.526 334.649 189.616C331.058 183.706 326.161 178.725 322.714 173.747C323.028 172.5 323.34 171.254 323.654 170.009C327.286 169.739 330.955 169.964 334.527 170.675C335.802 168.075 330.599 165.847 331.458 163.081C331.665 162.415 332.199 161.914 332.664 161.397C336.452 157.193 336.377 150.904 336.349 145.242C336.31 137.121 336.814 128.997 337.855 120.943C338.734 114.145 340.075 107.192 343.819 101.454C347.563 95.7176 354.235 91.4268 361.796 92.485C364.698 92.2622 370.911 92.8674 373.813 92.6446C368.099 85.9213 364.136 52.6666 366.16 39.9341C366.603 37.142 367.133 29.0309 368.922 26.843C370.11 25.391 371.756 24.3939 373.415 23.5202C385.325 17.2472 399.146 15.9856 412.554 14.8403C414.724 14.6549 416.946 14.4735 419.051 15.0334C422.553 15.9646 425.216 18.7992 427.32 21.7525C438.96 38.083 440.309 60.475 425.683 74.0418C422.373 77.1117 412.646 83.2888 408.923 85.8405C409.412 80.5962 411.906 75.3031 411.086 70.1013C410.251 64.8031 411.94 59.1629 415.546 55.1986C416.51 54.1393 417.697 53.1516 419.119 52.9848C420.874 52.7785 422.569 53.9134 423.547 55.3872C425.741 58.6924 424.829 63.3231 422.449 66.4977C420.071 69.6722 416.525 71.7202 413.08 73.6811C411.562 70.1096 412.375 65.1337 409.088 63.0764C408.32 62.5966 407.42 62.3665 406.626 61.9322C403.511 60.2325 402.882 56.1521 401.886 52.7422C399.912 45.9744 395.079 40.0937 388.827 36.8518C384.418 34.5654 379.192 33.4171 376.741 31.2147C373.57 29.8341 370.848 27.439 369.073 24.4665C376.325 18.8321 384.288 13.8468 393.163 11.5019C402.038 9.15704 411.967 9.7019 419.774 14.5348C417.124 12.1105 417.38 7.5424 419.647 4.75535C421.915 1.96829 425.624 0.733293 429.205 0.479162C431.981 0.282241 434.913 0.637216 437.219 2.19766C439.208 3.54283 440.545 5.64761 441.669 7.77114C444.081 12.3317 445.801 17.6101 444.587 22.6264C443.374 27.6431 438.341 31.9661 432.096 32.5589C433.154 41.0814 433.867 47.8742 432.568 56.3635C431.268 64.8529 427.285 72.2426 420.484 77.4745C417.154 80.0375 399.877 94.5475 393.422 97.7262C386.967 100.906 374.336 96.7271 372.088 88.2046C376.45 92.6353 379.926 99.3845 382.52 105.726C386.177 107.258 389.992 108.819 393.95 108.6C400.307 108.249 405.468 103.455 409.605 98.6072C411.937 95.8741 414.238 92.7939 414.486 89.2058C414.587 87.7516 414.899 85.6778 416.35 85.7938C416.943 85.8405 417.409 86.31 417.774 86.7805C419.584 89.1104 420.319 92.1295 420.419 95.0802C420.499 97.4246 420.198 99.8156 419.248 101.96C418.14 104.458 416.22 106.496 414.22 108.356C407.427 114.677 398.694 119.691 389.43 119.291C387.04 119.188 384.621 118.708 382.55 117.509C376.595 114.062 375.297 105.648 377.437 100.788C372.958 121.82 373.12 143.831 377.909 164.794C392.988 145.617 401.61 121.597 419.854 103.908C420.316 100.344 420.777 96.78 421.239 93.2157C431.213 96.867 440.884 101.346 450.122 106.592C454.462 109.055 458.857 111.834 461.523 116.059C465.207 121.898 464.903 129.312 464.473 136.206C463.44 152.822 462.406 169.437 461.372 186.053C460.802 195.214 460.192 204.556 456.799 213.082C455.549 216.222 453.733 219.412 450.678 220.848C448.077 222.07 445.046 221.802 442.208 221.361C426.645 218.947 411.805 212.035 400.704 199.154C404.453 194.526 406.759 188.741 407.222 182.8C407.291 181.913 407.315 180.991 406.978 180.167C406.686 179.454 406.146 178.875 405.619 178.314C400.249 172.601 394.878 166.888 389.508 161.175C388.638 160.25 387.745 159.306 386.613 158.732C385.675 158.258 384.625 158.063 383.588 157.895C377.375 156.887 371.038 156.65 364.767 157.189C365.159 159.402 367.724 160.457 369.954 160.71C372.183 160.964 374.641 160.881 376.957 162.343C367.195 162.124 357.397 163.637 348.154 166.787C346.258 167.433 344.101 168.48 343.794 170.46C350.829 171.143 357.954 170.908 364.93 169.764C358.175 170.281 351.421 170.799 344.666 171.317C350.968 175.063 358.157 177.3 365.468 177.789C360.199 177.63 354.972 176.235 350.324 173.747C349.353 175.095 349.848 177.086 350.986 178.296C352.124 179.506 353.739 180.122 355.295 180.699C358.695 181.962 362.094 183.224 365.494 184.485C362.545 183.543 359.596 182.6 356.647 181.657C358.968 184.829 361.478 187.96 364.759 190.122C368.039 192.284 372.238 193.366 375.964 192.124C377.601 191.579 379.13 190.601 380.852 190.482C382.286 190.383 383.684 190.893 385.032 191.395C388.583 192.72 392.136 194.044 396.287 195.308C399.59 194.048 404.177 195.525 406.228 192.643C406.876 191.732 407.064 190.581 407.223 189.474C407.877 184.877 408.307 180.248 408.513 175.609C422.306 183.799 438.802 187.415 451.062 197.765C446.158 194.431 441.255 191.097 436.352 187.763C435.555 187.22 434.724 186.641 434.295 185.777C433.894 184.967 431.833 185.059 431.851 184.155C432.11 171.171 426.419 166.56 432.238 140.372C433.513 132.805 436.713 125.572 441.451 119.542C443.415 117.043 445.719 114.69 448.633 113.424C451.546 112.158 455.175 112.169 457.684 114.12C460.603 116.39 461.266 120.479 461.551 124.17C461.92 128.943 462.018 133.734 462.117 138.52C462.6 161.947 463.026 185.826 456.292 208.267C455.444 211.098 454.359 214.071 451.993 215.839C448.876 218.169 444.499 217.698 440.791 216.522C437.084 215.347 433.453 213.56 429.957 214.688C432.957 233.036 435.957 251.385 438.958 269.733C421.48 270.329 403.966 269.897 386.538 268.439C385.051 268.315 383.496 268.159 382.251 267.336C380.739 266.337 379.975 264.554 379.292 262.874C377.462 258.37 375.631 253.867 372.918 248.021C370.925 254.487 368.931 260.953 366.939 267.418C354.003 269.289 340.897 266.499 328.124 263.724C327.902 263.677 327.669 263.622 327.503 263.466C327.164 263.148 327.27 262.593 327.401 262.146C331.089 249.554 333.68 236.64 335.977 223.702C334.917 236.452 333.858 249.201 332.8 261.951C332.747 262.59 332.698 263.26 332.95 263.851C333.976 266.252 335.651 264.368 337.41 266.297C336.842 268.626 335.46 271.522 336.154 273.817C347.009 274.386 580.148 273.918 591.003 274.486" stroke="#E0E3E2" stroke-linecap="round" stroke-linejoin="round"/>
</svg>
